<svg width="48" height="48" viewBox="0 0 48 48" fill="none" xmlns="http://www.w3.org/2000/svg">
    <path d="M24 12C26.2091 12 28 10.2091 28 8C28 5.79086 26.2091 4 24 4C21.7909 4 20 5.79086 20 8C20 10.2091 21.7909 12 24 12Z" stroke="#8B4513" stroke-width="2"/>
    <path d="M32 20C34.2091 20 36 18.2091 36 16C36 13.7909 34.2091 12 32 12C29.7909 12 28 13.7909 28 16C28 18.2091 29.7909 20 32 20Z" stroke="#8B4513" stroke-width="2"/>
    <path d="M16 20C18.2091 20 20 18.2091 20 16C20 13.7909 18.2091 12 16 12C13.7909 12 12 13.7909 12 16C12 18.2091 13.7909 20 16 20Z" stroke="#8B4513" stroke-width="2"/>
    <path d="M24 44C35.0457 44 44 35.0457 44 24C44 12.9543 35.0457 4 24 4C12.9543 4 4 12.9543 4 24C4 35.0457 12.9543 44 24 44Z" stroke="#8B4513" stroke-width="2"/>
    <path d="M24 36C30.6274 36 36 30.6274 36 24C36 17.3726 30.6274 12 24 12C17.3726 12 12 17.3726 12 24C12 30.6274 17.3726 36 24 36Z" stroke="#8B4513" stroke-width="2"/>
</svg> 