<svg width="16" height="16" viewBox="0 0 16 16" fill="none" xmlns="http://www.w3.org/2000/svg">
    <path d="M14.6667 11.28V13.28C14.6667 13.6469 14.5262 13.9991 14.2761 14.2492C14.0261 14.4993 13.6739 14.6397 13.307 14.64C10.9526 14.4589 8.68442 13.6798 6.70002 12.38C4.84886 11.1934 3.32466 9.66918 2.138 7.81802C0.833641 5.82801 0.0545371 3.54881 -0.126666 1.19135C-0.126666 0.824684 0.0133703 0.472723 0.262783 0.222645C0.512196 -0.0274335 0.864139 -0.168137 1.23133 -0.168668H3.23133C3.90667 -0.168668 4.47267 0.318001 4.56467 0.984668C4.71638 2.10477 5.01381 3.19744 5.45133 4.23802C5.65467 4.72468 5.54467 5.28468 5.178 5.65802L4.158 6.67802C5.43003 8.56613 6.97853 10.1146 8.86667 11.3867L9.88667 10.3667C10.26 10 10.82 9.89002 11.3067 10.0933C12.3473 10.5309 13.44 10.8283 14.5601 10.98C15.2367 11.0733 15.7201 11.6467 14.7201 12.3267L14.6667 11.28Z" stroke="white" stroke-width="1.5" stroke-linecap="round" stroke-linejoin="round"/>
</svg> 