<svg width="32" height="32" viewBox="0 0 32 32" fill="none" xmlns="http://www.w3.org/2000/svg">
    <path d="M29.3334 22.56V26.56C29.3334 27.2938 29.0524 27.9982 28.5522 28.4984C28.0522 28.9986 27.3478 29.2794 26.614 29.28C21.9052 29.0178 17.3688 27.4596 13.4 24.76C9.69772 22.3868 6.64932 19.3384 4.276 15.636C1.56728 11.656 0.00907422 7.09762 -0.253332 2.3827C-0.253332 1.64937 0.0267406 0.945446 0.525566 0.44529C1.02439 -0.054867 1.72828 -0.336274 2.46266 -0.337336H6.46266C7.81334 -0.337336 8.94534 0.636002 9.12934 1.96934C9.43276 4.20954 10.0276 6.39488 10.9027 8.47604C11.3093 9.44936 11.0893 10.5694 10.356 11.316L8.316 13.356C10.8601 17.1323 13.957 20.2292 17.7333 22.7733L19.7733 20.7333C20.52 20 21.64 19.78 22.6133 20.1867C24.6946 21.0618 26.88 21.6566 29.1202 21.96C30.4735 22.1467 31.4402 23.2933 29.4402 24.6533L29.3334 22.56Z" stroke="#8B4513" stroke-width="2" stroke-linecap="round" stroke-linejoin="round"/>
</svg> 