<svg width="24" height="24" viewBox="0 0 24 24" fill="none" xmlns="http://www.w3.org/2000/svg">
    <path d="M22 16.92V19.92C22 20.4704 21.7893 20.9987 21.4142 21.3738C21.0391 21.7489 20.5108 21.9596 19.96 21.96C16.4289 21.6883 13.0266 20.5197 10.05 18.57C7.27328 16.7901 4.98696 14.5037 3.207 11.727C1.25046 8.74202 0.0818057 5.32822 0.0100002 1.787C0.0100002 1.237 0.220055 0.709085 0.594175 0.333967C0.968294 -0.0411511 1.49621 -0.252205 2.047 -0.253H5.047C6.06 -0.253 6.909 0.477 7.047 1.477C7.27457 3.15716 7.72071 4.79616 8.377 6.357C8.682 7.087 8.517 7.927 7.967 8.487L6.487 9.967C8.14505 12.8492 10.4678 15.1719 13.35 16.83L14.83 15.35C15.39 14.8 16.23 14.635 16.96 14.94C18.521 15.5963 20.16 16.0424 21.84 16.27C22.855 16.41 23.585 17.27 22.585 18.29L22 16.92Z" stroke="#8B4513" stroke-width="2" stroke-linecap="round" stroke-linejoin="round"/>
</svg> 